<svg xmlns="http://www.w3.org/2000/svg" viewBox="0 0 1024 1024" role="img" aria-labelledby="title desc">
  <title id="title">PromptDock icon option 2</title>
  <desc id="desc">A quick launcher command mark with prompt braces and a focused cursor.</desc>
  <defs>
    <linearGradient id="tile" x1="170" y1="124" x2="854" y2="900" gradientUnits="userSpaceOnUse">
      <stop offset="0" stop-color="#F8FAFC"/>
      <stop offset="1" stop-color="#D8F3FF"/>
    </linearGradient>
    <linearGradient id="panel" x1="226" y1="264" x2="798" y2="746" gradientUnits="userSpaceOnUse">
      <stop offset="0" stop-color="#0F172A"/>
      <stop offset="0.58" stop-color="#164E63"/>
      <stop offset="1" stop-color="#1E3A8A"/>
    </linearGradient>
    <filter id="shadow" x="140" y="204" width="744" height="614" color-interpolation-filters="sRGB" filterUnits="userSpaceOnUse">
      <feDropShadow dx="0" dy="28" stdDeviation="34" flood-color="#0F172A" flood-opacity="0.26"/>
    </filter>
  </defs>

  <rect x="64" y="64" width="896" height="896" rx="220" fill="url(#tile)"/>
  <path d="M198 232C304 150 438 126 588 158C718 186 816 264 872 376V210C872 166 836 130 792 130H232C188 130 152 166 152 210V284C166 266 181 249 198 232Z" fill="#38BDF8" opacity="0.28"/>
  <path d="M158 716C284 646 400 630 520 670C652 714 768 686 866 588V814C866 858 830 894 786 894H238C194 894 158 858 158 814V716Z" fill="#2563EB" opacity="0.14"/>

  <g filter="url(#shadow)">
    <rect x="204" y="246" width="616" height="488" rx="114" fill="url(#panel)"/>
    <rect x="286" y="338" width="452" height="68" rx="34" fill="#E0F2FE" opacity="0.14"/>
    <rect x="286" y="608" width="308" height="48" rx="24" fill="#67E8F9" opacity="0.26"/>
  </g>

  <path d="M396 424L330 490L396 556" fill="none" stroke="#67E8F9" stroke-linecap="round" stroke-linejoin="round" stroke-width="58"/>
  <path d="M628 424L694 490L628 556" fill="none" stroke="#A7F3D0" stroke-linecap="round" stroke-linejoin="round" stroke-width="58"/>
  <path d="M498 572L548 408" fill="none" stroke="#F8FAFC" stroke-linecap="round" stroke-width="54"/>
  <rect x="548" y="596" width="120" height="46" rx="23" fill="#F8FAFC"/>
</svg>
